<svg width="120" height="120" viewBox="0 0 120 120" fill="none" xmlns="http://www.w3.org/2000/svg">
<rect width="120" height="120" rx="20" fill="url(#paint0_linear_4_244)"/>
<path d="M31.6719 27.9453H62.7266C67.4141 27.9453 71.4766 28.4401 74.9141 29.4297C78.3516 30.3932 81.2031 31.7995 83.4688 33.6484C85.7344 35.4974 87.4141 37.75 88.5078 40.4062C89.6276 43.0625 90.1875 46.0703 90.1875 49.4297C90.1875 51.6953 89.9141 53.8568 89.3672 55.9141C88.8203 57.9453 87.974 59.8203 86.8281 61.5391C85.7083 63.2578 84.2891 64.7943 82.5703 66.1484C80.8516 67.4766 78.8333 68.5833 76.5156 69.4688L89.7969 89H74.6406L63.1562 71.6562H62.8047L44.0547 71.6172V89H31.6719V27.9453ZM63.0391 60.9141C65.3828 60.9141 67.4271 60.6406 69.1719 60.0938C70.9427 59.5469 72.4141 58.7786 73.5859 57.7891C74.7839 56.7995 75.6693 55.6016 76.2422 54.1953C76.8411 52.763 77.1406 51.1745 77.1406 49.4297C77.1406 46.0182 75.9688 43.388 73.625 41.5391C71.2812 39.6641 67.7526 38.7266 63.0391 38.7266H44.0547V60.9141H63.0391Z" fill="white"/>
<defs>
<linearGradient id="paint0_linear_4_244" x1="40.2293" y1="-6.15025e-07" x2="40.2293" y2="120" gradientUnits="userSpaceOnUse">
<stop stop-color="#0A081A"/>
<stop offset="1" stop-color="#6C4AB6"/>
</linearGradient>
</defs>
</svg>
