<svg width="1920" height="1080" viewBox="0 0 1920 1080" fill="none" xmlns="http://www.w3.org/2000/svg">
<line x1="44.3333" y1="1117.43" x2="44.3333" y2="-65.5653" stroke="#A3A1F6" stroke-opacity="0.2" stroke-width="3"/>
<line x1="198.333" y1="1117.43" x2="198.333" y2="-65.5653" stroke="#A3A1F6" stroke-opacity="0.2" stroke-width="3"/>
<line x1="352.333" y1="1117.43" x2="352.333" y2="-65.5653" stroke="#A3A1F6" stroke-opacity="0.2" stroke-width="3"/>
<line x1="506.333" y1="1117.43" x2="506.333" y2="-65.5653" stroke="#A3A1F6" stroke-opacity="0.2" stroke-width="3"/>
<line x1="660.333" y1="1117.43" x2="660.334" y2="-65.5653" stroke="#A3A1F6" stroke-opacity="0.2" stroke-width="3"/>
<line x1="814.333" y1="1117.43" x2="814.334" y2="-65.5653" stroke="#A3A1F6" stroke-opacity="0.2" stroke-width="3"/>
<line x1="968.334" y1="1117.43" x2="968.334" y2="-65.5653" stroke="#A3A1F6" stroke-opacity="0.2" stroke-width="3"/>
<line x1="1122.33" y1="1117.43" x2="1122.33" y2="-65.5653" stroke="#A3A1F6" stroke-opacity="0.2" stroke-width="3"/>
<line x1="1276.33" y1="1117.43" x2="1276.33" y2="-65.5653" stroke="#A3A1F6" stroke-opacity="0.2" stroke-width="3"/>
<line x1="1430.33" y1="1117.43" x2="1430.33" y2="-65.5653" stroke="#A3A1F6" stroke-opacity="0.2" stroke-width="3"/>
<line x1="1584.33" y1="1117.43" x2="1584.33" y2="-65.5653" stroke="#A3A1F6" stroke-opacity="0.2" stroke-width="3"/>
<line x1="1738.33" y1="1117.43" x2="1738.33" y2="-65.5653" stroke="#A3A1F6" stroke-opacity="0.2" stroke-width="3"/>
<line x1="1892.33" y1="1117.43" x2="1892.33" y2="-65.5653" stroke="#A3A1F6" stroke-opacity="0.2" stroke-width="3"/>
<line x1="2107.24" y1="1003.5" x2="-188" y2="1003.5" stroke="#A3A1F6" stroke-opacity="0.2" stroke-width="3"/>
<line x1="2107.24" y1="849.5" x2="-188" y2="849.5" stroke="#A3A1F6" stroke-opacity="0.2" stroke-width="3"/>
<line x1="2107.24" y1="695.5" x2="-188" y2="695.5" stroke="#A3A1F6" stroke-opacity="0.2" stroke-width="3"/>
<line x1="2107.24" y1="541.5" x2="-188" y2="541.5" stroke="#A3A1F6" stroke-opacity="0.2" stroke-width="3"/>
<line x1="2107.24" y1="387.5" x2="-188" y2="387.5" stroke="#A3A1F6" stroke-opacity="0.2" stroke-width="3"/>
<line x1="2107.24" y1="233.5" x2="-188" y2="233.5" stroke="#A3A1F6" stroke-opacity="0.2" stroke-width="3"/>
<line x1="2107.24" y1="79.5" x2="-188" y2="79.5001" stroke="#A3A1F6" stroke-opacity="0.2" stroke-width="3"/>
</svg>
