<svg width="100" height="100" viewBox="0 0 100 100" fill="none" xmlns="http://www.w3.org/2000/svg">
<path d="M33.3333 8.33334H66.6666C73.2971 8.33334 79.6559 10.9673 84.3443 15.6557C89.0327 20.3441 91.6667 26.7029 91.6667 33.3333V66.6667C91.6666 73.2971 89.0327 79.6559 84.3443 84.3444C79.6559 89.0328 73.2971 91.6667 66.6666 91.6667H33.3333C26.7029 91.6667 20.3441 89.0328 15.6556 84.3444C10.9672 79.6559 8.33331 73.2971 8.33331 66.6667L8.33331 33.3333C8.33331 26.7029 10.9672 20.3441 15.6556 15.6557C20.3441 10.9673 26.7029 8.33334 33.3333 8.33334V8.33334ZM33.3333 16.6667C28.913 16.6667 24.6738 18.4226 21.5482 21.5482C18.4226 24.6738 16.6666 28.9131 16.6666 33.3333V66.6667C16.6666 71.087 18.4226 75.3262 21.5482 78.4518C24.6738 81.5774 28.913 83.3334 33.3333 83.3334H66.6666C71.0869 83.3334 75.3262 81.5774 78.4518 78.4518C81.5774 75.3262 83.3333 71.087 83.3333 66.6667V33.3333C83.3333 28.9131 81.5774 24.6738 78.4518 21.5482C75.3262 18.4226 71.0869 16.6667 66.6666 16.6667H33.3333ZM58.3333 45.8333H70.8333C71.9384 45.8333 72.9982 46.2723 73.7796 47.0537C74.561 47.8351 75 48.8949 75 50C75 51.1051 74.561 52.1649 73.7796 52.9463C72.9982 53.7277 71.9384 54.1667 70.8333 54.1667H58.3333C57.2282 54.1667 56.1684 53.7277 55.387 52.9463C54.6056 52.1649 54.1666 51.1051 54.1666 50C54.1666 48.8949 54.6056 47.8351 55.387 47.0537C56.1684 46.2723 57.2282 45.8333 58.3333 45.8333ZM50 62.5H70.8333C71.9384 62.5 72.9982 62.939 73.7796 63.7204C74.561 64.5018 75 65.5616 75 66.6667C75 67.7718 74.561 68.8316 73.7796 69.613C72.9982 70.3944 71.9384 70.8333 70.8333 70.8333H50C48.8949 70.8333 47.8351 70.3944 47.0537 69.613C46.2723 68.8316 45.8333 67.7718 45.8333 66.6667C45.8333 65.5616 46.2723 64.5018 47.0537 63.7204C47.8351 62.939 48.8949 62.5 50 62.5ZM50 29.1667H70.8333C71.9384 29.1667 72.9982 29.6057 73.7796 30.3871C74.561 31.1685 75 32.2283 75 33.3333C75 34.4384 74.561 35.4982 73.7796 36.2796C72.9982 37.061 71.9384 37.5 70.8333 37.5H50C48.8949 37.5 47.8351 37.061 47.0537 36.2796C46.2723 35.4982 45.8333 34.4384 45.8333 33.3333C45.8333 32.2283 46.2723 31.1685 47.0537 30.3871C47.8351 29.6057 48.8949 29.1667 50 29.1667ZM32.6166 51.0125L41.4583 42.1667C41.8454 41.7798 42.305 41.473 42.8107 41.2638C43.3164 41.0545 43.8583 40.9469 44.4056 40.9471C44.9529 40.9473 45.4948 41.0553 46.0003 41.2649C46.5059 41.4745 46.9652 41.7816 47.3521 42.1688C47.7389 42.5559 48.0457 43.0154 48.255 43.5211C48.4642 44.0268 48.5719 44.5688 48.5717 45.1161C48.5715 45.6634 48.4635 46.2052 48.2539 46.7108C48.0443 47.2163 47.7371 47.6757 47.35 48.0625L35.5666 59.8458C35.1797 60.2332 34.7201 60.5406 34.2143 60.7503C33.7085 60.9599 33.1663 61.0679 32.6187 61.0679C32.0712 61.0679 31.529 60.9599 31.0231 60.7503C30.5173 60.5406 30.0578 60.2332 29.6708 59.8458L23.7791 53.9583C23.0202 53.1725 22.6002 52.12 22.6097 51.0275C22.6192 49.935 23.0574 48.89 23.8299 48.1174C24.6024 47.3449 25.6475 46.9067 26.74 46.8972C27.8325 46.8877 28.885 47.3077 29.6708 48.0667L32.6166 51.0125Z" fill="#8D72E1"/>
</svg>
